# This file uses feet as units for non-parametric coordinates.

v -91.246002 -1.758746 60.923645
v 91.428726 -1.758746 60.923645
v -91.246002 0.000000 60.923645
v 91.428726 0.000000 60.923645
v -91.246002 0.000000 -60.896622
v 91.428726 0.000000 -60.896622
v -91.246002 -1.758746 -60.896622
v 91.428726 -1.758746 -60.896622
v 100.420700 -1.758746 -60.896622
v 100.420700 -1.758746 60.923645
v 100.420700 0.000000 -60.896622
v 100.420700 0.000000 60.923645
v -100.237976 -1.758746 -60.896622
v -100.237976 -1.758746 60.923645
v -100.237976 0.000000 60.923645
v -100.237976 0.000000 -60.896622
v -91.246002 -1.758746 71.178528
v 91.428726 -1.758746 71.178528
v 91.428726 0.000000 71.178528
v -91.246002 0.000000 71.178528
v 100.420700 -1.758746 71.178528
v 100.420700 0.000000 71.178528
v -100.237976 0.000000 71.178528
v -100.237976 -1.758746 71.178528
v -91.246002 0.000000 -71.151505
v 91.428726 0.000000 -71.151505
v 91.428726 -1.758746 -71.151505
v -91.246002 -1.758746 -71.151505
v 100.420700 0.000000 -71.151505
v 100.420700 -1.758746 -71.151505
v -100.237976 -1.758746 -71.151505
v -100.237976 0.000000 -71.151505
v 93.525818 7.591955 63.164082
v 93.525818 7.591955 -63.137054
v 100.420700 7.591955 60.923645
v 100.420700 7.591955 -60.896622
v -93.201126 7.591955 63.164082
v -93.201126 7.591955 -63.137054
v -100.237976 7.591955 -60.896622
v -100.237976 7.591955 60.923645
v -91.246002 7.591955 71.178528
v 91.428726 7.591955 71.178528
v 100.420700 7.591955 71.178528
v -100.237976 7.591955 71.178528
v 91.428726 7.591955 -71.151505
v -91.246002 7.591955 -71.151505
v 100.420700 7.591955 -71.151505
v -100.237976 7.591955 -71.151505
vt 0.375000 0.000000
vt 0.625000 0.000000
vt 0.375000 0.250000
vt 0.625000 0.250000
vt 0.375000 0.500000
vt 0.625000 0.500000
vt 0.375000 0.750000
vt 0.625000 0.750000
vt 0.375000 1.000000
vt 0.625000 1.000000
vt 0.875000 0.000000
vt 0.875000 0.250000
vt 0.125000 0.000000
vt 0.125000 0.250000
vt 0.625000 0.000000
vt 0.875000 0.000000
vt 0.875000 0.250000
vt 0.625000 0.250000
vt 0.125000 0.000000
vt 0.375000 0.000000
vt 0.375000 0.250000
vt 0.125000 0.250000
vt 0.375000 0.000000
vt 0.625000 0.000000
vt 0.625000 0.250000
vt 0.375000 0.250000
vt 0.375000 0.500000
vt 0.625000 0.500000
vt 0.625000 0.750000
vt 0.375000 0.750000
vt 0.875000 0.250000
vt 0.875000 0.250000
vt 0.875000 0.000000
vt 0.875000 0.000000
vt 0.625000 0.000000
vt 0.625000 0.250000
vt 0.375000 0.250000
vt 0.375000 0.000000
vt 0.125000 0.000000
vt 0.125000 0.000000
vt 0.125000 0.250000
vt 0.125000 0.250000
vt 0.875000 0.250000
vt 0.625000 0.250000
vt 0.625000 0.250000
vt 0.875000 0.250000
vt 0.375000 0.250000
vt 0.125000 0.250000
vt 0.125000 0.250000
vt 0.375000 0.250000
vt 0.375000 0.250000
vt 0.625000 0.250000
vt 0.875000 0.250000
vt 0.875000 0.250000
vt 0.875000 0.000000
vt 0.875000 0.000000
vt 0.625000 0.000000
vt 0.625000 0.250000
vt 0.625000 0.000000
vt 0.375000 0.250000
vt 0.125000 0.250000
vt 0.125000 0.250000
vn 0.000000 0.000000 1.000000
vn 0.000000 0.000000 1.000000
vn 0.000000 0.000000 1.000000
vn 0.000000 0.000000 1.000000
vn 0.000000 1.000000 0.000000
vn 0.000000 1.000000 0.000000
vn 0.000000 1.000000 0.000000
vn 0.000000 1.000000 0.000000
vn 0.000000 0.000000 -1.000000
vn 0.000000 0.000000 -1.000000
vn 0.000000 0.000000 -1.000000
vn 0.000000 0.000000 -1.000000
vn 0.000000 -1.000000 0.000000
vn 0.000000 -1.000000 0.000000
vn 0.000000 -1.000000 0.000000
vn 0.000000 -1.000000 0.000000
vn 1.000000 0.000000 0.000000
vn 1.000000 0.000000 0.000000
vn 1.000000 0.000000 0.000000
vn 1.000000 0.000000 0.000000
vn -1.000000 0.000000 0.000000
vn -1.000000 0.000000 0.000000
vn -1.000000 0.000000 0.000000
vn -1.000000 0.000000 0.000000
vn 0.000000 -1.000000 0.000000
vn 0.000000 -1.000000 0.000000
vn 0.000000 0.000000 -1.000000
vn 0.000000 0.000000 -1.000000
vn 0.000000 1.000000 -0.000000
vn 0.000000 1.000000 0.000000
vn 0.000000 1.000000 0.000000
vn 0.000000 1.000000 -0.000000
vn 0.000000 0.000000 1.000000
vn 0.000000 0.000000 1.000000
vn 0.000000 -1.000000 0.000000
vn 0.000000 -1.000000 0.000000
vn 0.000000 0.000000 1.000000
vn 0.000000 0.000000 1.000000
vn 0.000000 1.000000 0.000000
vn 0.000000 1.000000 -0.000000
vn 0.000000 1.000000 -0.000000
vn 0.000000 1.000000 0.000000
vn 0.000000 0.000000 -1.000000
vn 0.000000 0.000000 -1.000000
vn 0.000000 -1.000000 0.000000
vn 0.000000 -1.000000 0.000000
vn 0.000000 1.000000 -0.000000
vn 0.000000 1.000000 0.000000
vn 0.000000 -1.000000 0.000000
vn 1.000000 0.000000 0.000000
vn 1.000000 0.000000 0.000000
vn 0.000000 1.000000 0.000000
vn 0.000000 1.000000 0.000000
vn -1.000000 0.000000 0.000000
vn -1.000000 0.000000 0.000000
vn 0.000000 -1.000000 0.000000
vn 0.000000 1.000000 -0.000000
vn 0.000000 1.000000 -0.000000
vn 0.000000 -1.000000 0.000000
vn 0.000000 -1.000000 0.000000
vn 0.000000 1.000000 -0.000000
vn 1.000000 0.000000 0.000000
vn 1.000000 0.000000 0.000000
vn 0.000000 -1.000000 0.000000
vn 0.000000 -1.000000 0.000000
vn -1.000000 0.000000 0.000000
vn -1.000000 0.000000 0.000000
vn 0.000000 1.000000 -0.000000
vn -0.963903 0.266254 0.000000
vn -0.963903 0.266254 0.000000
vn -0.963903 0.266254 0.000000
vn -0.963903 0.266254 0.000000
vn 1.000000 0.000000 0.000000
vn 1.000000 0.000000 0.000000
vn 1.000000 0.000000 0.000000
vn 1.000000 0.000000 0.000000
vn 0.968404 0.249389 0.000000
vn 0.968404 0.249389 0.000000
vn 0.968404 0.249389 0.000000
vn 0.968404 0.249389 0.000000
vn -1.000000 0.000000 0.000000
vn -1.000000 0.000000 0.000000
vn -1.000000 0.000000 0.000000
vn -1.000000 0.000000 0.000000
vn 0.000000 0.283039 -0.959108
vn 0.000000 0.283039 -0.959108
vn 0.000000 0.283039 -0.959108
vn 0.000000 0.283039 -0.959108
vn 0.000000 0.000000 1.000000
vn 0.000000 0.000000 1.000000
vn 0.000000 0.000000 1.000000
vn 0.000000 0.000000 1.000000
vn 0.000000 0.000000 1.000000
vn 0.000000 0.000000 1.000000
vn 0.000000 0.000000 1.000000
vn 0.000000 0.000000 1.000000
vn 1.000000 0.000000 0.000000
vn 1.000000 0.000000 0.000000
vn 1.000000 0.000000 0.000000
vn 1.000000 0.000000 0.000000
vn -1.000000 0.000000 0.000000
vn -1.000000 0.000000 0.000000
vn -1.000000 0.000000 0.000000
vn -1.000000 0.000000 0.000000
vn 0.000000 0.000000 1.000000
vn 0.000000 0.000000 1.000000
vn 0.000000 0.000000 1.000000
vn 0.000000 0.000000 1.000000
vn 0.000000 0.283039 0.959108
vn 0.000000 0.283039 0.959109
vn 0.000000 0.283039 0.959108
vn 0.000000 0.283039 0.959108
vn 0.000000 0.000000 -1.000000
vn 0.000000 0.000000 -1.000000
vn 0.000000 0.000000 -1.000000
vn 0.000000 0.000000 -1.000000
vn 1.000000 0.000000 0.000000
vn 1.000000 0.000000 0.000000
vn 1.000000 0.000000 0.000000
vn 1.000000 0.000000 0.000000
vn 0.000000 0.000000 -1.000000
vn 0.000000 0.000000 -1.000000
vn 0.000000 0.000000 -1.000000
vn 0.000000 0.000000 -1.000000
vn 0.000000 0.000000 -1.000000
vn 0.000000 0.000000 -1.000000
vn 0.000000 0.000000 -1.000000
vn 0.000000 0.000000 -1.000000
vn -1.000000 0.000000 0.000000
vn -1.000000 0.000000 0.000000
vn -1.000000 0.000000 0.000000
vn -1.000000 0.000000 0.000000
s 1
f 17/23/1 18/24/2 19/25/3 20/26/4
s off
f 3/3/5 4/4/6 6/6/7 5/5/8
s 2
f 25/27/9 26/28/10 27/29/11 28/30/12
s 3
f 7/7/13 8/8/14 2/10/15 1/9/16
s 4
f 10/15/17 9/16/18 11/17/19 12/18/20
s 5
f 13/19/21 14/20/22 15/21/23 16/22/24
s 3
f 2/2/15 8/11/14 9/16/25 10/15/26
s 2
f 27/34/11 26/31/10 29/32/27 30/33/28
s 6
f 34/43/29 33/44/30 35/45/31 36/46/32
s 1
f 19/25/3 18/24/2 21/35/33 22/36/34
s 3
f 7/13/13 1/1/16 14/20/35 13/19/36
s 1
f 17/23/1 20/26/4 23/37/37 24/38/38
s 6
f 37/47/39 38/48/40 39/49/41 40/50/42
s 2
f 25/42/9 28/39/12 31/40/43 32/41/44
s 3
f 1/1/16 2/2/15 18/24/45 17/23/46
s 6
f 33/44/30 37/47/39 41/51/47 42/52/48
s 3
f 2/5/15 10/6/26 21/28/49 18/27/45
s 4
f 10/8/17 12/7/20 22/30/50 21/29/51
s 6
f 35/43/31 33/46/30 42/53/48 43/54/52
f 37/46/39 40/55/42 44/56/53 41/53/47
s 5
f 15/16/23 14/11/22 24/34/54 23/33/55
s 3
f 14/2/35 1/15/16 17/35/46 24/24/56
s 6
f 38/57/40 34/45/29 45/58/57 46/59/58
s 3
f 8/18/14 7/4/13 28/25/59 27/36/60
s 6
f 34/47/29 36/50/32 47/60/61 45/51/57
s 4
f 11/21/19 9/20/18 30/38/62 29/37/63
s 3
f 9/20/25 8/1/14 27/23/60 30/38/64
f 7/13/13 13/19/36 31/40/65 28/39/59
s 5
f 13/19/21 16/22/24 32/41/66 31/40/67
s 6
f 39/49/41 38/48/40 46/61/58 48/62/68
s off
f 6/12/69 4/4/70 33/44/71 34/43/72
f 12/18/73 11/17/74 36/46/75 35/45/76
f 3/3/77 5/14/78 38/48/79 37/47/80
f 16/22/81 15/21/82 40/50/83 39/49/84
f 4/4/85 3/3/86 37/47/87 33/44/88
f 20/26/89 19/25/90 42/52/91 41/51/92
f 19/32/93 22/31/94 43/54/95 42/53/96
f 22/31/97 12/12/98 35/43/99 43/54/100
f 15/16/101 23/33/102 44/56/103 40/55/104
f 23/33/105 20/32/106 41/53/107 44/56/108
f 5/15/109 6/18/110 34/45/111 38/57/112
f 26/36/113 25/35/114 46/59/115 45/58/116
f 11/21/117 29/37/118 47/60/119 36/50/120
f 29/37/121 26/26/122 45/51/123 47/60/124
f 25/42/125 32/41/126 48/62/127 46/61/128
f 32/41/129 16/22/130 39/49/131 48/62/132